<?xml version="1.0" standalone="no"?><svg xmlns="http://www.w3.org/2000/svg" viewBox="0 0 1440 320"><path fill="#4b2edc" fill-opacity="1" d="M0,192L30,170.7C60,149,120,107,180,122.7C240,139,300,213,360,224C420,235,480,181,540,186.7C600,192,660,256,720,261.3C780,267,840,213,900,213.3C960,213,1020,267,1080,250.7C1140,235,1200,149,1260,149.3C1320,149,1380,235,1410,277.3L1440,320L1440,0L1410,0C1380,0,1320,0,1260,0C1200,0,1140,0,1080,0C1020,0,960,0,900,0C840,0,780,0,720,0C660,0,600,0,540,0C480,0,420,0,360,0C300,0,240,0,180,0C120,0,60,0,30,0L0,0Z"></path></svg>