<svg id="visual" viewBox="0 0 900 600" width="900" height="600" xmlns="http://www.w3.org/2000/svg" xmlns:xlink="http://www.w3.org/1999/xlink" version="1.1"><rect x="0" y="0" width="900" height="600" fill="#4b2edc"></rect><path d="M0 88L18.8 107.7C37.7 127.3 75.3 166.7 112.8 170.5C150.3 174.3 187.7 142.7 225.2 138.8C262.7 135 300.3 159 337.8 175C375.3 191 412.7 199 450.2 187.2C487.7 175.3 525.3 143.7 562.8 129.7C600.3 115.7 637.7 119.3 675.2 129.2C712.7 139 750.3 155 787.8 148.8C825.3 142.7 862.7 114.3 881.3 100.2L900 86L900 0L881.3 0C862.7 0 825.3 0 787.8 0C750.3 0 712.7 0 675.2 0C637.7 0 600.3 0 562.8 0C525.3 0 487.7 0 450.2 0C412.7 0 375.3 0 337.8 0C300.3 0 262.7 0 225.2 0C187.7 0 150.3 0 112.8 0C75.3 0 37.7 0 18.8 0L0 0Z" fill="#ffffff" stroke-linecap="round" stroke-linejoin="miter"></path></svg>